<svg width="237" height="137" viewBox="0 0 237 137" fill="none" xmlns="http://www.w3.org/2000/svg">
<g id="bus-icon 2">
<path id="Vector" opacity="0.5" fill-rule="evenodd" clip-rule="evenodd" d="M170.774 119.151H164.066V129.548C164.069 130.524 163.877 131.491 163.501 132.393C163.125 133.296 162.572 134.117 161.874 134.808C161.176 135.5 160.347 136.05 159.434 136.426C158.52 136.802 157.541 136.997 156.551 137H152.123C150.133 136.991 148.226 136.208 146.819 134.821C145.411 133.433 144.616 131.554 144.608 129.592V119.195H99.1821V129.592C99.1733 131.56 98.3741 133.444 96.9594 134.832C95.5446 136.221 93.6296 137 91.6333 137H87.2058C85.2163 136.991 83.3109 136.208 81.9051 134.82C80.4993 133.432 79.7071 131.553 79.7013 129.592V119.195H74.0342C70.1159 119.129 68.2342 117.013 67.9464 113.423V28.4664C65.7327 28.6846 64.6812 29.1865 64.1499 30.2993V54.5743H59.3904C57.9617 54.5714 56.5923 54.0107 55.582 53.0149C54.5718 52.0191 54.0029 50.6693 54 49.2611V34.9252C54.005 33.5438 54.5534 32.2181 55.5299 31.2271C56.5063 30.2362 57.8347 29.6572 59.2355 29.612C59.6893 25.4443 61.5156 24.2333 68.0903 23.9278C69.0275 16.6544 74.0563 11.2757 83.1769 7.79179C102.801 4.24601 140.036 3.89689 160.834 7.79179C169.999 11.2721 175.002 16.6508 175.91 23.9278C182.551 24.2551 184.333 25.477 184.765 29.612C186.165 29.6572 187.494 30.2362 188.47 31.2271C189.447 32.2181 189.995 33.5438 190 34.9252V49.2611C189.997 50.6693 189.428 52.0191 188.418 53.0149C187.408 54.0107 186.038 54.5714 184.61 54.5743H179.85V30.2338C179.319 29.1428 178.223 28.6628 176.054 28.4555V112.55C176.054 117.416 174.46 119.097 170.763 119.097L170.774 119.151ZM71.8537 97.5818L72.1636 90.283C72.3407 89.0065 73.0269 88.4392 74.2556 88.6465C80.4593 91.9107 86.4118 95.6192 92.0649 99.742C93.2714 100.528 92.7955 102.044 91.2016 101.76L74.4548 100.56C73.7293 100.457 73.0661 100.099 72.5879 99.5516C72.1097 99.004 71.8489 98.3043 71.8537 97.5818V97.5818ZM111.557 106.943H132.919C133.195 106.943 133.46 107.051 133.655 107.243C133.85 107.435 133.96 107.696 133.96 107.968V111.503C133.96 111.775 133.85 112.036 133.655 112.228C133.46 112.421 133.195 112.529 132.919 112.529H111.557C111.281 112.529 111.016 112.421 110.821 112.228C110.626 112.036 110.516 111.775 110.516 111.503V107.968C110.516 107.696 110.626 107.435 110.821 107.243C111.016 107.051 111.281 106.943 111.557 106.943V106.943ZM167.287 106.943C167.834 106.947 168.367 107.11 168.82 107.412C169.273 107.714 169.626 108.14 169.834 108.638C170.042 109.137 170.096 109.684 169.99 110.213C169.884 110.741 169.622 111.227 169.237 111.61C168.852 111.992 168.361 112.254 167.826 112.363C167.29 112.472 166.734 112.423 166.227 112.221C165.72 112.02 165.284 111.676 164.975 111.232C164.665 110.788 164.496 110.264 164.487 109.725C164.487 109 164.778 108.306 165.297 107.792C165.815 107.279 166.519 106.989 167.254 106.986L167.287 106.943ZM75.8052 106.943C76.3513 106.949 76.8833 107.114 77.3348 107.417C77.7863 107.72 78.1372 108.147 78.3437 108.646C78.5501 109.144 78.603 109.692 78.4956 110.219C78.3882 110.747 78.1254 111.232 77.74 111.613C77.3545 111.995 76.8636 112.256 76.3285 112.364C75.7934 112.472 75.238 112.422 74.7315 112.22C74.2251 112.019 73.7901 111.675 73.4811 111.231C73.172 110.787 73.0025 110.263 72.9937 109.725C72.9937 108.998 73.2864 108.302 73.8075 107.788C74.3285 107.275 75.0351 106.986 75.772 106.986L75.8052 106.943ZM172.191 97.5273L171.881 90.2284C171.704 88.952 171.017 88.3846 169.8 88.5919C163.591 91.8536 157.635 95.5622 151.979 99.6875C150.773 100.473 151.249 101.99 152.843 101.706L169.589 100.506C170.316 100.405 170.981 100.047 171.459 99.4994C171.938 98.9513 172.198 98.2504 172.191 97.5273ZM107.34 11.654H136.671C137.146 11.6568 137.601 11.844 137.936 12.1748C138.272 12.5056 138.462 12.9535 138.465 13.4214V18.08C138.462 18.5479 138.272 18.9958 137.936 19.3266C137.601 19.6574 137.146 19.8446 136.671 19.8474H107.34C106.865 19.8446 106.411 19.6574 106.075 19.3266C105.739 18.9958 105.549 18.5479 105.547 18.08V13.4214C105.549 12.9535 105.739 12.5056 106.075 12.1748C106.411 11.844 106.865 11.6568 107.34 11.654V11.654ZM76.4914 25.6189H167.121C167.708 25.6189 168.271 25.8488 168.687 26.258C169.102 26.6672 169.335 27.2222 169.335 27.8009V74.9107C169.335 76.089 168.35 76.7545 167.121 77.0927C136.029 86.399 107.572 86.0171 76.4914 77.0927C75.2628 76.7654 74.2777 76.1108 74.2777 74.9107V27.7791C74.2777 27.2004 74.5109 26.6454 74.9261 26.2362C75.3412 25.827 75.9043 25.5971 76.4914 25.5971V25.6189Z" fill="white"/>
</g>
</svg>
