<svg width="123" height="121" viewBox="0 0 123 121" fill="none" xmlns="http://www.w3.org/2000/svg">
<g id="bus-symbol-icon 1" clip-path="url(#clip0_611_100)">
<g id="Group" opacity="0.5">
<path id="Vector" fill-rule="evenodd" clip-rule="evenodd" d="M110.8 103.6H103.2V114C103.2 117.6 100.3 120.5 96.7 120.5H87.7C84.1 120.5 81.2 117.6 81.2 114V103.7H41.5V114C41.5 117.6 38.6 120.5 35 120.5H26C22.4 120.5 19.5 117.6 19.5 114V103.7H12V21.6999C12 14.0999 16.4 8.5999 25.3 5.1999C42.9 -1.7001 79.9 -1.7001 97.6 5.1999C106.5 8.5999 110.9 14.0999 110.9 21.6999V103.6H110.8ZM118.6 40.3999H114.8V61.9999H118.6C121 61.9999 122.9 60.0999 122.9 57.6999V44.6999C122.9 42.2999 121 40.3999 118.6 40.3999ZM4.3 40.3999H8.1V61.9999H4.3C1.9 61.9999 0 60.0999 0 57.6999V44.6999C0 42.2999 1.9 40.3999 4.3 40.3999ZM46.4 8.5999H76.5C77.4 8.5999 78.1 9.2999 78.1 10.1999V15.3999C78.1 16.2999 77.4 16.9999 76.5 16.9999H46.4C45.5 16.9999 44.8 16.2999 44.8 15.3999V10.1999C44.8 9.2999 45.5 8.5999 46.4 8.5999ZM22.9 23.1999H99.6C100.6 23.1999 101.5 24.0999 101.5 25.0999V67.8999C101.5 68.8999 100.6 69.7999 99.6 69.7999H22.9C21.9 69.7999 21 68.8999 21 67.8999V25.0999C21 24.0999 21.8 23.1999 22.9 23.1999ZM98.6 84.8999C98.6 82.9999 97.9 81.2999 96.6 79.9999C95.3 78.6999 93.6 77.9999 91.7 77.9999C89.8 77.9999 88.2 78.6999 86.8 79.9999C85.4 81.2999 84.8 82.9999 84.8 84.8999C84.8 86.7999 85.5 88.3999 86.8 89.6999C88.2 90.9999 89.8 91.6999 91.7 91.6999C93.6 91.6999 95.3 90.9999 96.6 89.6999C98 88.3999 98.6 86.7999 98.6 84.8999ZM38.1 84.8999C38.1 82.9999 37.4 81.2999 36.1 79.9999C34.8 78.6999 33.1 77.9999 31.2 77.9999C29.3 77.9999 27.6 78.6999 26.3 79.9999C25 81.2999 24.3 82.9999 24.3 84.8999C24.3 86.7999 24.9 88.3999 26.3 89.6999C27.6 90.9999 29.3 91.6999 31.2 91.6999C33.2 91.6999 34.8 90.9999 36.1 89.6999C37.4 88.3999 38.1 86.7999 38.1 84.8999Z" fill="white"/>
</g>
</g>
<defs>
<clipPath id="clip0_611_100">
<rect width="122.9" height="120.5" fill="white"/>
</clipPath>
</defs>
</svg>
