<svg width="89" height="123" viewBox="0 0 89 123" fill="none" xmlns="http://www.w3.org/2000/svg">
<g opacity="0.5">
<path fill-rule="evenodd" clip-rule="evenodd" d="M26.06 0H61.72C67.57 0 74.73 7.56 75.86 13.28L88.61 77.61C89.75 83.34 82.36 91.59 76.52 91.59H19.26C5.40998 91.59 -2.46002 88.81 0.699981 72.09L11.7 13.84C12.78 8.08 20.2 0 26.06 0ZM8.96998 122.88L18.85 99.97H31.04L27.78 107.33H60.46L57.1 99.76H69.08L78.85 122.46H67.08L63.61 114.89H24.21L20.95 122.88H8.96998V122.88ZM28.55 68.71C32.91 68.71 36.44 72.24 36.44 76.6C36.44 80.96 32.91 84.49 28.55 84.49C24.19 84.49 20.66 80.96 20.66 76.6C20.66 72.24 24.19 68.71 28.55 68.71ZM36.93 7.43H51.15C51.51 7.43 51.81 7.73 51.81 8.09V14.77C51.81 15.13 51.51 15.43 51.15 15.43H36.93C36.57 15.43 36.27 15.13 36.27 14.77V8.09C36.27 7.73 36.57 7.43 36.93 7.43ZM10.27 61.36L18.06 22.97H70.54L77.82 61.36H10.27ZM59.53 68.71C63.89 68.71 67.42 72.24 67.42 76.6C67.42 80.96 63.89 84.49 59.53 84.49C55.17 84.49 51.64 80.96 51.64 76.6C51.64 72.24 55.17 68.71 59.53 68.71Z" fill="white"/>
</g>
</svg>
