<svg width="512" height="306" viewBox="0 0 512 306" fill="none" xmlns="http://www.w3.org/2000/svg">
<g id="houses-icon 1" clip-path="url(#clip0_611_94)">
<path id="Vector" opacity="0.5" fill-rule="evenodd" clip-rule="evenodd" d="M153.12 122.45H174.94V144.75H153.12V122.45ZM137.24 212.51H220.56V291.56H310.33V154.96C310.33 154.58 310.37 154.22 310.44 153.86L179.48 58.02L45.7702 153.91C45.9002 154.38 45.9702 154.88 45.9702 155.39V291.56H137.24V212.51V212.51ZM324.75 300.25C324.75 303.41 322.19 305.98 319.01 305.98H37.2802C34.1102 305.98 31.5402 303.41 31.5402 300.25V161.36C2.13015 172.68 -8.75985 136.48 7.67015 123.54L174.57 1.50997C176.6 -0.350025 179.73 -0.540025 181.97 1.20997L349.23 122.98C349.22 123 349.85 123.54 349.91 123.61C369.71 144.93 348.84 173.09 324.75 161.72V300.25ZM345.42 212.51H368.5V293.62H472.6V162.93C472.6 162.5 472.66 162.07 472.76 161.67L358.16 79.48L341.34 91.79L306.78 66.63L356.02 30.78C356.936 30.0651 358.077 29.6988 359.238 29.7464C360.399 29.794 361.506 30.2524 362.36 31.04L452.2 96.72V65.21H491.3V125.31L505.43 135.64C519.46 146.54 510.28 177.8 484.97 168.05V301.07C484.97 303.78 482.76 305.98 480.05 305.98H344.79L345.42 300.25V212.51V212.51ZM204.67 152.18H182.86V174.48H204.67V152.18ZM153.12 152.18H174.94V174.48H153.12V152.18ZM204.67 122.45H182.86V144.75H204.67V122.45Z" fill="white"/>
</g>
<defs>
<clipPath id="clip0_611_94">
<rect width="512" height="305.98" fill="white"/>
</clipPath>
</defs>
</svg>
