<svg width="512" height="306" viewBox="0 0 512 306" fill="none" xmlns="http://www.w3.org/2000/svg">
<g clip-path="url(#clip0_612_108)">
<path fill-rule="evenodd" clip-rule="evenodd" d="M410.808 263.627H391.752V289.703C391.752 298.729 384.481 306 375.455 306H352.889C343.863 306 336.592 298.729 336.592 289.703V263.877H237.053V289.703C237.053 298.729 229.781 306 220.755 306H198.19C189.163 306 181.892 298.729 181.892 289.703V263.877H163.087V58.2796C163.087 39.2242 174.12 25.4341 196.434 16.9093C240.563 -0.390995 333.333 -0.390995 377.712 16.9093C400.027 25.4341 411.059 39.2242 411.059 58.2796V263.627H410.808ZM430.365 105.166H420.837V159.323H430.365C436.382 159.323 441.146 154.56 441.146 148.542V115.947C441.146 109.93 436.382 105.166 430.365 105.166ZM143.781 105.166H153.309V159.323H143.781C137.764 159.323 133 154.56 133 148.542V115.947C133 109.93 137.764 105.166 143.781 105.166ZM249.338 25.4341H324.808C327.064 25.4341 328.819 27.1892 328.819 29.4458V42.4837C328.819 44.7402 327.064 46.4954 324.808 46.4954H249.338C247.082 46.4954 245.327 44.7402 245.327 42.4837V29.4458C245.327 27.1892 247.082 25.4341 249.338 25.4341ZM190.417 62.0406H382.726C385.234 62.0406 387.49 64.2971 387.49 66.8044V174.116C387.49 176.624 385.234 178.88 382.726 178.88H190.417C187.91 178.88 185.653 176.624 185.653 174.116V66.8044C185.653 64.2971 187.659 62.0406 190.417 62.0406ZM380.219 216.74C380.219 211.977 378.464 207.714 375.204 204.455C371.945 201.195 367.682 199.44 362.919 199.44C358.155 199.44 354.143 201.195 350.633 204.455C347.123 207.714 345.618 211.977 345.618 216.74C345.618 221.504 347.373 225.516 350.633 228.775C354.143 232.035 358.155 233.79 362.919 233.79C367.682 233.79 371.945 232.035 375.204 228.775C378.715 225.516 380.219 221.504 380.219 216.74ZM228.528 216.74C228.528 211.977 226.773 207.714 223.513 204.455C220.254 201.195 215.991 199.44 211.227 199.44C206.464 199.44 202.201 201.195 198.942 204.455C195.682 207.714 193.927 211.977 193.927 216.74C193.927 221.504 195.432 225.516 198.942 228.775C202.201 232.035 206.464 233.79 211.227 233.79C216.242 233.79 220.254 232.035 223.513 228.775C226.773 225.516 228.528 221.504 228.528 216.74Z" fill="black"/>
</g>
<defs>
<clipPath id="clip0_612_108">
<rect width="512" height="305.98" fill="white"/>
</clipPath>
</defs>
</svg>
