<svg width="512" height="273" viewBox="0 0 512 273" fill="none" xmlns="http://www.w3.org/2000/svg">
<path opacity="0.5" d="M404.505 17.7552L431.372 80.6522L499.895 86.777C503.412 87.1967 506.489 88.9652 508.627 91.5031C510.775 94.0609 511.974 97.3981 511.755 100.935L511.685 101.784C511.485 103.383 511.015 104.892 510.326 106.261L510.006 106.83C509.417 107.859 508.687 108.808 507.858 109.638L455.622 155.289L470.869 222.003C471.708 225.62 470.979 229.267 469.14 232.185C467.312 235.082 464.345 237.32 460.718 238.14C458.929 238.539 457.101 238.569 455.362 238.259C453.673 237.96 452.065 237.33 450.626 236.431L392.095 201.45L364.778 217.777L361.151 202.18L388.139 186.043C389.324 185.323 390.684 184.939 392.071 184.934C393.459 184.929 394.821 185.302 396.012 186.013L455.052 221.304L439.725 154.26C439.136 151.602 439.955 148.725 442.143 146.806L493.95 101.575L425.907 95.4597C424.449 95.4186 423.034 94.9598 421.83 94.138C420.625 93.3162 419.682 92.1658 419.113 90.8236L392.095 27.5769L374.17 69.5616L358.164 68.1228L379.696 17.7152C381.145 14.2981 383.852 11.7902 387.05 10.5013C390.257 9.20241 393.954 9.14246 397.381 10.6012L397.97 10.881C399.369 11.5504 400.608 12.4497 401.627 13.4788C402.856 14.6678 403.815 16.1466 404.505 17.7552V17.7552ZM262.884 4.5863L299.483 90.2941L392.325 98.6271C396.422 98.9768 399.459 102.584 399.099 106.68C398.93 108.679 397.98 110.417 396.582 111.636L326.351 172.964L347.123 263.878C348.052 267.884 345.535 271.891 341.518 272.81C339.47 273.28 337.411 272.85 335.773 271.781L256 224.081L175.967 271.931C172.44 274.039 167.874 272.89 165.756 269.353C164.764 267.711 164.452 265.747 164.887 263.878L164.877 263.868L185.659 172.964L115.418 111.636C114.681 110.993 114.078 110.21 113.644 109.333C113.21 108.456 112.953 107.502 112.888 106.526C112.823 105.549 112.951 104.57 113.265 103.643C113.579 102.716 114.074 101.86 114.719 101.125C115.374 100.377 116.172 99.7685 117.066 99.3343C117.96 98.9001 118.932 98.6495 119.925 98.5971L212.517 90.2941L249.136 4.54633C250.754 0.74953 255.131 -1.01898 258.918 0.599656C260.786 1.38899 262.165 2.85775 262.884 4.5863V4.5863ZM119.905 27.5769L92.8874 90.8236C92.3188 92.1666 91.376 93.3177 90.1713 94.1397C88.9667 94.9617 87.551 95.4199 86.0932 95.4597L18.0505 101.575L69.8568 146.806C70.8948 147.715 71.6675 148.888 72.0932 150.2C72.5189 151.512 72.5816 152.915 72.2748 154.26L56.9577 221.304L115.988 186.013C118.496 184.515 121.513 184.625 123.861 186.043L150.889 202.2L147.322 217.837L119.905 201.45L61.374 236.441C59.9352 237.33 58.3266 237.96 56.638 238.259C54.8994 238.569 53.071 238.539 51.2925 238.14C47.6456 237.32 44.688 235.082 42.8596 232.185C41.0311 229.257 40.3017 225.62 41.131 222.003L56.3782 155.289L4.14221 109.638C3.31291 108.808 2.58352 107.859 1.99402 106.83L1.68428 106.261C0.984868 104.892 0.515264 103.383 0.315432 101.784L0.245491 100.965C0.0256762 97.4081 1.22467 94.0709 3.37286 91.5031C5.51105 88.9552 8.58846 87.1967 12.1155 86.777L80.6278 80.6522L107.495 17.7552C108.185 16.1466 109.154 14.6678 110.353 13.4688C111.392 12.4497 112.621 11.5604 114.02 10.891L114.629 10.6012C118.036 9.14246 121.743 9.20241 124.95 10.4913C128.148 11.7902 130.855 14.2981 132.304 17.7152L153.826 68.1028L137.84 69.5416L119.905 27.5769V27.5769Z" fill="white"/>
</svg>
