<?xml version="1.0" encoding="UTF-8" standalone="no"?>
<svg
   viewBox="0 0 100 71.440468"
   version="1.1"
   id="svg8"
   sodipodi:docname="doodle-2.70b54cee.svg"
   width="100"
   height="71.440468"
   inkscape:version="1.1.1 (3bf5ae0d25, 2021-09-20)"
   xmlns:inkscape="http://www.inkscape.org/namespaces/inkscape"
   xmlns:sodipodi="http://sodipodi.sourceforge.net/DTD/sodipodi-0.dtd"
   xmlns="http://www.w3.org/2000/svg"
   xmlns:svg="http://www.w3.org/2000/svg">
  <defs
     id="defs12" />
  <sodipodi:namedview
     id="namedview10"
     pagecolor="#ffffff"
     bordercolor="#666666"
     borderopacity="1.0"
     inkscape:pageshadow="2"
     inkscape:pageopacity="0.0"
     inkscape:pagecheckerboard="0"
     showgrid="false"
     inkscape:zoom="1.0257375"
     inkscape:cx="-246.6518"
     inkscape:cy="162.32223"
     inkscape:window-width="1366"
     inkscape:window-height="705"
     inkscape:window-x="-8"
     inkscape:window-y="-8"
     inkscape:window-maximized="1"
     inkscape:current-layer="svg8"
     fit-margin-top="0"
     fit-margin-left="0"
     fit-margin-right="0"
     fit-margin-bottom="0" />
  <g
     id="b"
     transform="matrix(0.33610295,0,0,0.33610295,0.00610934,0.0043758)"
     style="fill:#4ca7d1;fill-opacity:1">
    <g
       fill="#4262ff"
       id="c"
       style="fill:#4ca7d1;fill-opacity:1">
      <path
         d="m 247.58,208.78 c -0.5,-1.7 -2.33,-2.28 -3.63,-3.25 -19.97,-13.02 -41.32,-23.87 -60.55,-38.03 -6.95,-4.95 -13.75,-10.14 -21.09,-14.52 -6.13,-3.82 -13.95,-7.86 -17.2,-10.96 -3.4,-3.39 -8.66,1.78 -5.24,5.24 9.88,8.2 21.9,13.43 31.99,21.42 22.73,16.74 47.65,30.54 72.45,43.81 2.01,0.42 3.86,-1.77 3.25,-3.7 z m 9.63,-54.6 c -25.42,-12.12 -51.75,-22.05 -77.87,-32.49 -1.57,-0.43 -11.96,-5.89 -16.29,-7.65 -3.09,-0.6 -4.69,4.01 -1.9,5.51 15.35,8.27 31.77,14.2 47.98,20.54 15.36,5.92 32.59,14.05 46.2,19.55 3.06,0.59 4.65,-3.97 1.88,-5.45 z m 15.21,-46.67 c -18.04,-6.45 -36.07,-13.13 -54.68,-17.76 -14.15,-3.11 -28.57,-5.31 -42.89,-7.16 -3.52,0.27 -3.89,5.72 -0.45,6.53 14.2,2.45 28.53,4.28 42.55,7.68 18.22,4.63 35.88,11.17 53.77,16.91 4.02,1.09 5.77,-5.05 1.71,-6.2 z M 295.15,73.7 c -21.16,-7.23 -43.22,-11.3 -65.31,-14.44 -16.05,-1.8 -32.42,-4.44 -48.53,-3.82 -3.02,1.09 -2.06,5.96 1.18,5.85 37.92,1.71 73.23,8.04 110.88,18.69 4.09,1.2 5.96,-5.1 1.79,-6.28 z M 25.78,87.97 c -1.19,4.04 -3.22,8.18 -3.38,12.38 0.18,3.07 4.07,4.86 6.63,3.26 2.37,-1.41 2.38,-4.43 3.26,-6.77 0.53,-2.78 2.38,-5.44 2.21,-8.27 -0.36,-4.72 -7.63,-5.17 -8.71,-0.59 z m -3.92,27.6 c -0.75,6.66 8.36,8.12 8.98,1.36 0.92,-6.71 -8.41,-8.14 -8.98,-1.36 z m 98.21,-58.48 c -2.13,-0.55 -4.57,-1.58 -6.63,-0.33 -3.37,1.82 -2.65,7.28 1.07,8.18 1.82,0.32 3.58,0.89 5.29,1.59 0.13,0.06 0.25,0.11 0.44,0.2 2.22,1.51 5.49,1.25 6.88,-1.24 2.64,-4.92 -3.3,-7.24 -7.05,-8.4 z"
         id="path2"
         style="fill:#4ca7d1;fill-opacity:1" />
      <path
         d="m 88.38,157.59 c -3.68,0 -7.74,-1.31 -12.02,-3.91 -10.83,-6.58 -19,-17 -22.87,-29.02 -10.73,5.63 -20.69,9.12 -30.36,10.65 -3.49,0.55 -7.95,0.87 -11.59,-1.54 C 7.7,131.23 5.8,126.46 5.88,119.59 6.07,103.37 12.31,87.84 18.07,74.01 15.48,70.41 12.58,66.85 9.6,63.23 6.28,59.19 2.51,54.62 0.8,48.91 -0.91,43.23 -0.18,35.53 5.3,31.15 9.01,28.19 13.69,27.64 17.78,27.5 26.54,27.16 35.86,28.31 48.61,31.21 56.5,20.56 66.55,11.26 77.78,4.24 c 4.28,-2.68 9.93,-5.51 15.75,-3.66 4.86,1.55 8.48,6 10.76,13.24 2.43,7.72 3.5,16.07 3.35,26.06 10.59,1.05 21.05,4.22 30.42,9.24 6.97,3.74 10.56,8.07 10.99,13.24 0.52,6.4 -4.27,11.38 -7.92,14.57 -9.22,8.05 -19.76,14.53 -33.46,22.59 0.74,13.62 -0.38,27.27 -3.33,40.6 -1.25,5.66 -3.72,13.52 -10.65,16.43 -1.65,0.69 -3.44,1.04 -5.32,1.04 z M 55.5,116.73 a 3.197,3.197 0 0 1 3.12,2.47 c 2.79,11.85 10.67,22.69 21.07,29.01 3.24,1.96 7.87,3.97 11.53,2.43 3.19,-1.34 5.37,-5.12 6.87,-11.9 2.96,-13.38 3.99,-27.09 3.07,-40.77 -0.08,-1.21 0.53,-2.37 1.58,-2.98 14.23,-8.34 25.01,-14.87 34.18,-22.88 4.14,-3.62 5.97,-6.55 5.75,-9.22 -0.23,-2.79 -2.79,-5.52 -7.62,-8.12 a 75.208,75.208 0 0 0 -30.87,-8.74 3.199,3.199 0 0 1 -3.01,-3.32 C 101.58,32.09 100.63,23.52 98.19,15.75 96.58,10.62 94.37,7.57 91.61,6.7 88.32,5.65 84.31,7.75 81.2,9.69 70.07,16.65 60.18,25.98 52.59,36.68 51.84,37.74 50.51,38.23 49.24,37.95 36,34.83 26.68,33.62 18.02,33.93 c -3.05,0.11 -6.46,0.45 -8.7,2.25 -3.12,2.49 -3.41,7.4 -2.36,10.91 1.34,4.46 4.53,8.34 7.61,12.08 3.46,4.2 6.82,8.33 9.8,12.62 0.62,0.9 0.75,2.06 0.33,3.07 -5.72,13.69 -12.2,29.21 -12.38,44.83 -0.06,4.55 0.88,7.5 2.78,8.76 1.79,1.18 4.56,0.94 7.05,0.55 9.97,-1.57 20.37,-5.45 31.8,-11.85 0.49,-0.27 1.02,-0.41 1.56,-0.41 z"
         id="path4"
         style="fill:#4ca7d1;fill-opacity:1" />
    </g>
  </g>
</svg>
